#!OML:ASF H:\BabyWalks\Project 1\Capture day 1\Session 1\baby.ASF
:FULLY-SPECIFIED
:DEGREES
1390
root 45.7918 17.4341 -1.20393 -372.28 67.0116 -373.431
lowerback 18.2793 1.48299 -1.04712
upperback 5.84233 1.95721 -0.969053
thorax -3.95585 1.07314 -0.854679
lowerneck 4.79381 4.52536 5.85756
upperneck -20.119 6.60697 -3.81533
head -6.57735 3.24796 -2.66737
rclavicle -2.74323e-014 -4.77083e-015
rhumerus -40.0157 12.0307 -88.492
rradius 57.4306
rwrist 4.89215
rhand -9.78824 348.594
rfingers 7.12502
rthumb 16.1876 -40.7498
lclavicle -2.74323e-014 -4.77083e-015
lhumerus -37.6549 -12.2846 73.9742
lradius 50.3616
lwrist -0.217817
lhand 4.76318 8.74523
lfingers 7.12502
lthumb 30.1441 36.3063
rfemur 3.94491 21.5349 20.3352
rtibia 9.88911
rfoot -15.8252 4.82074
rtoes -5.48296
lfemur -18.3545 5.73643 -11.0265
ltibia 35.4056
lfoot -18.2566 2.68155
ltoes -3.50763
1391
root 45.785 17.4351 -1.19632 -372.364 67.0473 -373.498
lowerback 18.2853 1.47569 -1.02098
upperback 5.82149 1.9521 -0.945744
thorax -3.98129 1.0701 -0.844354
lowerneck 4.80815 4.505 5.88142
upperneck -20.0999 6.57301 -3.8572
head -6.57278 3.23292 -2.68237
rclavicle 3.1408e-014 -7.95139e-016
rhumerus -40.0921 12.0526 -88.5036
rradius 57.3753
rwrist 4.90355
rhand -9.77579 348.608
rfingers 7.12502
rthumb 16.1995 -40.7352
lclavicle 3.1408e-014 -7.95139e-016
lhumerus -37.7937 -12.2294 74.0334
lradius 50.1422
lwrist -0.321742
lhand 5.16261 8.92901
lfingers 7.12502
lthumb 30.5251 36.4199
rfemur 3.9725 21.5388 20.3988
rtibia 9.87009
rfoot -15.8021 4.77665
rtoes -5.45796
lfemur -18.3297 5.70953 -10.9708
ltibia 35.3485
lfoot -18.2168 2.68199
ltoes -3.56103
1392
root 45.778 17.4362 -1.18884 -372.427 67.0896 -373.542
lowerback 18.2845 1.46976 -0.997701
upperback 5.80634 1.94859 -0.925626
thorax -3.9971 1.06798 -0.835789
lowerneck 4.82123 4.48327 5.89663
upperneck -20.0864 6.5366 -3.89815
head -6.57028 3.21725 -2.69567
rclavicle 6.36111e-014 -3.10104e-014
rhumerus -40.1604 12.064 -88.5009
rradius 57.2998
rwrist 4.91884
rhand -9.75123 348.614
rfingers 7.12502
rthumb 16.2232 -40.7275
lclavicle 6.36111e-014 -3.10104e-014
lhumerus -37.9081 -12.1798 74.0883
lradius 49.93
lwrist -0.418602
lhand 5.53832 9.11323
lfingers 7.12502
lthumb 30.8833 36.5369
rfemur 3.99885 21.5385 20.4488
rtibia 9.85363
rfoot -15.7804 4.73374
rtoes -5.42637
lfemur -18.3056 5.67867 -10.9284
ltibia 35.2913
lfoot -18.1768 2.68644
ltoes -3.62377
1393
root 45.771 17.4374 -1.18164 -372.47 67.1432 -373.568
lowerback 18.2743 1.46204 -0.974446
upperback 5.79624 1.94305 -0.908595
thorax -4.00249 1.065 -0.829635
lowerneck 4.83438 4.46239 5.9021
upperneck -20.0816 6.5013 -3.9359
head -6.57096 3.20257 -2.70674
rclavicle -7.15625e-015 1.66979e-014
rhumerus -40.2177 12.0665 -88.4856
rradius 57.1985
rwrist 4.93524
rhand -9.71908 348.609
rfingers 7.12502
rthumb 16.2541 -40.7292
lclavicle -7.15625e-015 1.66979e-014
lhumerus -37.9986 -12.1302 74.1367
lradius 49.7284
lwrist -0.509344
lhand 5.88841 9.29578
lfingers 7.12502
lthumb 31.217 36.6557
rfemur 4.01712 21.5287 20.4847
rtibia 9.84923
rfoot -15.7679 4.6912
rtoes -5.39321
lfemur -18.2851 5.63837 -10.8993
ltibia 35.2302
lfoot -18.1334 2.6956
ltoes -3.69611
1394
root 45.7638 17.4385 -1.17491 -372.51 67.2118 -373.596
lowerback 18.2581 1.45034 -0.941337
upperback 5.78705 1.93417 -0.892038
thorax -4.00346 1.06041 -0.828638
lowerneck 4.84692 4.44105 5.89719
upperneck -20.0814 6.46483 -3.97135
head -6.57352 3.18789 -2.71546
rclavicle -3.45885e-014 2.70347e-014
rhumerus -40.269 12.0581 -88.4555
rradius 57.0719
rwrist 4.95819
rhand -9.67982 348.602
rfingers 7.12502
rthumb 16.292 -40.7336
lclavicle -3.45885e-014 2.70347e-014
lhumerus -38.0702 -12.0827 74.1824
lradius 49.5372
lwrist -0.595127
lhand 6.21026 9.47226
lfingers 7.12502
lthumb 31.5237 36.7726
rfemur 4.02327 21.5045 20.5115
rtibia 9.85905
rfoot -15.7645 4.64868
rtoes -5.3647
lfemur -18.2729 5.5846 -10.8774
ltibia 35.164
lfoot -18.0844 2.70764
ltoes -3.77527
1395
root 45.7565 17.4398 -1.1687 -372.502 67.3005 -373.575
lowerback 18.2385 1.43467 -0.920354
upperback 5.77861 1.91786 -0.879979
thorax -4.00208 1.05221 -0.823847
lowerneck 4.8594 4.42208 5.88477
upperneck -20.083 6.4306 -4.00791
head -6.57674 3.17496 -2.72349
rclavicle 3.61788e-014 -1.43125e-014
rhumerus -40.3151 12.0485 -88.4127
rradius 56.9209
rwrist 4.9858
rhand -9.63378 348.587
rfingers 7.12502
rthumb 16.3363 -40.7445
lclavicle 3.61788e-014 -1.43125e-014
lhumerus -38.1291 -12.0296 74.2241
lradius 49.3613
lwrist -0.679317
lhand 6.50048 9.63816
lfingers 7.12502
lthumb 31.8001 36.884
rfemur 4.026 21.4653 20.5074
rtibia 9.87489
rfoot -15.7694 4.60946
rtoes -5.32449
lfemur -18.2645 5.51295 -10.8861
ltibia 35.0951
lfoot -18.0328 2.72636
ltoes -3.86172
1396
root 45.7493 17.441 -1.16303 -372.481 67.4023 -373.541
lowerback 18.217 1.41623 -0.892208
upperback 5.76997 1.8991 -0.870847
thorax -3.99959 1.04286 -0.825641
lowerneck 4.87452 4.40421 5.86744
upperneck -20.0845 6.39772 -4.04316
head -6.58051 3.16292 -2.73046
rclavicle -2.26615e-014 7.15625e-015
rhumerus -40.3571 12.0315 -88.3587
rradius 56.7425
rwrist 5.01841
rhand -9.58458 348.569
rfingers 7.12502
rthumb 16.3837 -40.759
lclavicle -2.26615e-014 7.15625e-015
lhumerus -38.1746 -11.9819 74.2621
lradius 49.1991
lwrist -0.760967
lhand 6.75461 9.79304
lfingers 7.12502
lthumb 32.0421 36.9905
rfemur 4.03243 21.4148 20.4903
rtibia 9.88329
rfoot -15.7749 4.57129
rtoes -5.2829
lfemur -18.2612 5.42495 -10.9072
ltibia 35.0302
lfoot -17.9818 2.75128
ltoes -3.95354
1397
root 45.7419 17.442 -1.15754 -372.492 67.5036 -373.539
lowerback 18.1967 1.39647 -0.846056
upperback 5.76171 1.88193 -0.858146
thorax -3.99696 1.0343 -0.834228
lowerneck 4.89191 4.38961 5.85021
upperneck -20.0857 6.36918 -4.08006
head -6.5843 3.15314 -2.7383
rclavicle 8.34896e-015 -3.97569e-015
rhumerus -40.3961 12.0075 -88.2944
rradius 56.5406
rwrist 5.05944
rhand -9.52911 348.547
rfingers 7.12502
rthumb 16.4371 -40.7765
lclavicle 8.34896e-015 -3.97569e-015
lhumerus -38.2127 -11.9363 74.2955
lradius 49.0553
lwrist -0.836753
lhand 6.9696 9.93037
lfingers 7.12502
lthumb 32.2468 37.0865
rfemur 4.04799 21.362 20.487
rtibia 9.87882
rfoot -15.7729 4.53531
rtoes -5.23599
lfemur -18.2591 5.33093 -10.9148
ltibia 34.9724
lfoot -17.9315 2.77681
ltoes -4.04231
1398
root 45.7345 17.4426 -1.15171 -372.579 67.5897 -373.611
lowerback 18.1806 1.37855 -0.772326
upperback 5.75282 1.87238 -0.835291
thorax -3.99669 1.02944 -0.849443
lowerneck 4.90602 4.37853 5.8427
upperneck -20.0816 6.34469 -4.12566
head -6.58494 3.1454 -2.75042
rclavicle -3.97569e-015 -6.36111e-015
rhumerus -40.4327 11.9816 -88.2213
rradius 56.3099
rwrist 5.10936
rhand -9.47766 348.531
rfingers 7.12502
rthumb 16.4866 -40.7881
lclavicle -3.97569e-015 -6.36111e-015
lhumerus -38.2479 -11.8898 74.3233
lradius 48.932
lwrist -0.916191
lhand 7.15449 10.0495
lfingers 7.12502
lthumb 32.4227 37.1697
rfemur 4.08213 21.3174 20.5239
rtibia 9.84886
rfoot -15.7551 4.49943
rtoes -5.18909
lfemur -18.2554 5.2405 -10.8832
ltibia 34.9289
lfoot -17.8894 2.8009
ltoes -4.12446
1399
root 45.7273 17.4429 -1.14533 -372.715 67.6639 -373.723
lowerback 18.164 1.36463 -0.684902
upperback 5.75003 1.87108 -0.806513
thorax -3.98944 1.02875 -0.867753
lowerneck 4.91075 4.36827 5.84333
upperneck -20.0685 6.32048 -4.17717
head -6.58055 3.13779 -2.76518
rclavicle -2.42517e-014 -1.51076e-014
rhumerus -40.4588 11.9515 -88.1376
rradius 56.0509
rwrist 5.17055
rhand -9.42032 348.519
rfingers 7.12502
rthumb 16.5418 -40.7962
lclavicle -2.42517e-014 -1.51076e-014
lhumerus -38.2719 -11.8355 74.3377
lradius 48.829
lwrist -1.0224
lhand 7.34349 10.1319
lfingers 7.12502
lthumb 32.6026 37.2151
rfemur 4.14365 21.2805 20.5889
rtibia 9.79231
rfoot -15.7226 4.46311
rtoes -5.14067
lfemur -18.2428 5.15295 -10.828
ltibia 34.9009
lfoot -17.8558 2.82282
ltoes -4.19467
1400
root 45.7199 17.4428 -1.13829 -372.915 67.7177 -373.896
lowerback 18.1458 1.35683 -0.576074
upperback 5.7516 1.88211 -0.769861
thorax -3.97618 1.0342 -0.892312
lowerneck 4.91022 4.35756 5.85294
upperneck -20.0519 6.29513 -4.23563
head -6.57363 3.12963 -2.78327
rclavicle -2.34566e-014 -3.18055e-015
rhumerus -40.4752 11.9125 -88.0441
rradius 55.7673
rwrist 5.24437
rhand -9.36318 348.512
rfingers 7.12502
rthumb 16.5968 -40.7987
lclavicle -2.34566e-014 -3.18055e-015
lhumerus -38.2858 -11.7818 74.3413
lradius 48.7467
lwrist -1.14205
lhand 7.5204 10.1797
lfingers 7.12502
lthumb 32.7709 37.2279
rfemur 4.2198 21.2574 20.6931
rtibia 9.71939
rfoot -15.6771 4.4236
rtoes -5.09666
lfemur -18.2255 5.07365 -10.7355
ltibia 34.8859
lfoot -17.8284 2.84077
ltoes -4.25195
1401
root 45.7124 17.4425 -1.13072 -373.148 67.7572 -374.099
lowerback 18.1265 1.35359 -0.460066
upperback 5.75457 1.90061 -0.728194
thorax -3.96074 1.04335 -0.917144
lowerneck 4.89904 4.34799 5.87648
upperneck -20.0235 6.27064 -4.3021
head -6.56027 3.12163 -2.80549
rclavicle -5.08889e-014 7.15625e-015
rhumerus -40.4821 11.8697 -87.9428
rradius 55.4575
rwrist 5.33079
rhand -9.30909 348.508
rfingers 7.12502
rthumb 16.6489 -40.7982
lclavicle -5.08889e-014 7.15625e-015
lhumerus -38.2959 -11.7232 74.3341
lradius 48.6881
lwrist -1.27082
lhand 7.68961 10.1977
lfingers 7.12502
lthumb 32.9319 37.2123
rfemur 4.29825 21.2448 20.8195
rtibia 9.65188
rfoot -15.6309 4.37931
rtoes -5.0693
lfemur -18.203 5.00236 -10.6229
ltibia 34.8765
lfoot -17.8046 2.85251
ltoes -4.29443
1402
root 45.7048 17.4422 -1.1227 -373.379 67.7888 -374.297
lowerback 18.1075 1.35478 -0.348927
upperback 5.75662 1.92399 -0.685382
thorax -3.94645 1.05487 -0.939048
lowerneck 4.88848 4.34079 5.89785
upperneck -19.9943 6.2505 -4.36201
head -6.54689 3.11535 -2.82552
rclavicle 4.96962e-014 -6.36111e-015
rhumerus -40.4822 11.8236 -87.8344
rradius 55.1228
rwrist 5.43088
rhand -9.24591 348.504
rfingers 7.12502
rthumb 16.7097 -40.7964
lclavicle 4.96962e-014 -6.36111e-015
lhumerus -38.3056 -11.6625 74.318
lradius 48.6533
lwrist -1.40455
lhand 7.84788 10.1892
lfingers 7.12502
lthumb 33.0824 37.172
rfemur 4.36706 21.2397 20.9508
rtibia 9.61048
rfoot -15.5944 4.32914
rtoes -5.04911
lfemur -18.1747 4.93481 -10.5072
ltibia 34.8655
lfoot -17.7795 2.85976
ltoes -4.32649
1403
root 45.6968 17.4418 -1.11429 -373.579 67.817 -374.462
lowerback 18.0819 1.36061 -0.251185
upperback 5.75971 1.95092 -0.64661
thorax -3.92777 1.06818 -0.958147
lowerneck 4.877 4.33377 5.91938
upperneck -19.9639 6.23164 -4.41653
head -6.53315 3.10925 -2.84387
rclavicle 3.57812e-015 7.95139e-016
rhumerus -40.4713 11.7713 -87.7229
rradius 54.7768
rwrist 5.52831
rhand -9.16269 348.455
rfingers 7.12502
rthumb 16.7898 -40.839
lclavicle 3.57812e-015 7.95139e-016
lhumerus -38.3093 -11.6048 74.292
lradius 48.6416
lwrist -1.53162
lhand 7.9805 10.154
lfingers 7.12502
lthumb 33.2085 37.11
rfemur 4.4104 21.2403 21.0722
rtibia 9.61894
rfoot -15.5815 4.27192
rtoes -5.04195
lfemur -18.1413 4.86977 -10.402
ltibia 34.8454
lfoot -17.7493 2.86283
ltoes -4.35017
1404
root 45.6888 17.4415 -1.10555 -373.725 67.8484 -374.567
lowerback 18.0553 1.37071 -0.175175
upperback 5.75893 1.9791 -0.613878
thorax -3.91306 1.08203 -0.971626
lowerneck 4.87428 4.32926 5.9311
upperneck -19.9337 6.21822 -4.45659
head -6.52164 3.10526 -2.85664
rclavicle 3.22031e-014 -7.15625e-015
rhumerus -40.4543 11.7082 -87.6048
rradius 54.402
rwrist 5.64191
rhand -9.07927 348.418
rfingers 7.12502
rthumb 16.8701 -40.8695
lclavicle 3.22031e-014 -7.15625e-015
lhumerus -38.3167 -11.5576 74.2645
lradius 48.654
lwrist -1.6333
lhand 8.07164 10.109
lfingers 7.12502
lthumb 33.2951 37.0465
rfemur 4.42115 21.2426 21.1715
rtibia 9.69843
rfoot -15.6043 4.20612
rtoes -5.04351
lfemur -18.0982 4.80376 -10.3208
ltibia 34.8084
lfoot -17.7107 2.86149
ltoes -4.36813
